# xmcd CD database file
#
# Track frame offsets:
#	150
#	2795
#	14390
#	24202
#	43902
#	74790
#	84085
#	95312
#	100355
#	114000
#	126147
#	137865
#	152262
#	164942
#	179915
#	186415
#	197797
#	209872
#	224260
#	236892
#	253702
#	267705
#	281047
#	293242
#	318395
#	327502
#
# Disc length: 4557 seconds
#
# Revision: 0
# Processed by: cddbd v1.4PL0 Copyright (c) Steve Scherf et al.
# Submitted via: CDex 1.50
#
DISCID=9b11cb1a
DTITLE=Merle Haggard - The Hit Albums
DYEAR=1995
DGENRE=Country
TTITLE0=Opening Introduction and Theme
TTITLE1=Mama Tried
TTITLE2=No Hard Times
TTITLE3=Silver Wings
TTITLE4=Medley:Swinging Doors, I'm A Lonesome Fugitive, Sing Me Bach Home,Branded Man
TTITLE5=In The Arms Of Love
TTITLE6=Workin' Man Blues
TTITLE7=Introduction to Hobo Bill
TTITLE8=Hobo Bill's Last Ride
TTITLE9=Billy Overcame His Size
TTITLE10=If I Had Left It Up To You
TTITLE11=White Line Fever
TTITLE12=Blue Rock
TTITLE13=Okie From Muskogee
TTITLE14=Theme - Hammin' It Up
TTITLE15=I Take A Lot Of Pride What I Am
TTITLE16=Lorrinne Corrina
TTITLE17=Every Fool Has A Rainbow
TTITLE18=T.B. Blues
TTITLE19=When Did Right Become Wrong
TTITLE20=Philadelphia Lawyer
TTITLE21=Stealin' Corn
TTITLE22=Harold's Super Service
TTITLE23=Medley:Devil Woman, I'm Movin', Folsom Prison Blues, Jackson, Orange Blossom Special, Love's Gonna Live Here
TTITLE24=Today I Started Loving You Again
TTITLE25=The Fightin' Side Of Me
EXTD=YEAR: 1995
EXTT0=
EXTT1=
EXTT2=
EXTT3=
EXTT4=
EXTT5=
EXTT6=
EXTT7=
EXTT8=
EXTT9=
EXTT10=
EXTT11=
EXTT12=
EXTT13=
EXTT14=
EXTT15=
EXTT16=
EXTT17=
EXTT18=
EXTT19=
EXTT20=
EXTT21=
EXTT22=
EXTT23=
EXTT24=
EXTT25=
PLAYORDER=
